<?xml version="1.0" encoding="UTF-8" standalone="no"?>
<!-- Generator: Adobe Illustrator 26.0.1, SVG Export Plug-In . SVG Version: 6.00 Build 0)  -->

<svg
   version="1.1"
   id="Capa_1"
   x="0px"
   y="0px"
   viewBox="0 0 24 24"
   style="enable-background:new 0 0 24 24;"
   xml:space="preserve"
   width="512"
   height="512"
   sodipodi:docname="linkedin.svg"
   inkscape:version="1.3 (0e150ed6c4, 2023-07-21)"
   xmlns:inkscape="http://www.inkscape.org/namespaces/inkscape"
   xmlns:sodipodi="http://sodipodi.sourceforge.net/DTD/sodipodi-0.dtd"
   xmlns="http://www.w3.org/2000/svg"
   xmlns:svg="http://www.w3.org/2000/svg"><defs
   id="defs1" /><sodipodi:namedview
   id="namedview1"
   pagecolor="#ffffff"
   bordercolor="#000000"
   borderopacity="0.25"
   inkscape:showpageshadow="2"
   inkscape:pageopacity="0.0"
   inkscape:pagecheckerboard="0"
   inkscape:deskcolor="#d1d1d1"
   inkscape:zoom="1.5878906"
   inkscape:cx="256"
   inkscape:cy="256"
   inkscape:window-width="1920"
   inkscape:window-height="1009"
   inkscape:window-x="1912"
   inkscape:window-y="-8"
   inkscape:window-maximized="1"
   inkscape:current-layer="g1" />&#10;<g
   id="g1">&#10;	&#10;	<path
   id="Path_2520"
   d="m 19.150779,19.013959 h -3.007 v -4.709 c 0,-1.123 -0.02,-2.568 -1.564,-2.568 -1.566,0 -1.806,1.223 -1.806,2.487 v 4.79 H 9.7677786 V 9.3299594 h 2.8870004 v 1.3229996 h 0.04 c 0.589,-1.0059996 1.683,-1.6069996 2.848,-1.5639996 3.048,0 3.609,2.0049996 3.609,4.6119996 z M 6.3747786,8.0059594 c -0.964,0 -1.745,-0.781 -1.745,-1.745 0,-0.964 0.781,-1.745 1.745,-1.745 0.964,0 1.745,0.781 1.745,1.745 0,0.964 -0.781,1.745 -1.745,1.745 v 0 m 1.503,11.0079996 h -3.01 V 9.3299594 h 3.01 z M 20.649779,1.7239594 H 3.3567786 c -0.817,-0.009 -1.487,0.646 -1.497,1.463 V 20.550959 c 0.01,0.818 0.68,1.473 1.497,1.464 H 20.649779 c 0.819,0.01 1.492,-0.645 1.503,-1.464 V 3.1859594 c -0.012,-0.819 -0.685,-1.474 -1.503,-1.463" />&#10;	&#10;</g>&#10;&#10;&#10;&#10;&#10;&#10;&#10;&#10;&#10;&#10;&#10;&#10;&#10;&#10;&#10;&#10;</svg>
